<svg xmlns="http://www.w3.org/2000/svg" width="238" height="238" viewBox="0 0 238 238"><defs><style>.a{fill:#00ffea;}.b{fill:#00ceb4;}.c{fill:#ff8900;}.d{fill:#161615;fill-rule:evenodd;}.e{fill:#fff;}.f{fill:#ffbf00;}.g{fill:#ffdba9;}.h{fill:#ffc473;}.i{fill:#c20018;}.j{fill:#ff0335;}</style></defs><path class="a" d="M238,119A119,119,0,1,1,119,0,119,119,0,0,1,238,119Zm0,0"/><path class="b" d="M127.034,290.324a119.078,119.078,0,0,0,114.68-150.86L200.023,97.773H76.909V192l-6.4,3.149-6.7-6.938-48.8,23.344A119.043,119.043,0,0,0,127.034,290.324Zm0,0" transform="translate(-8.034 -52.324)"/><path class="c" d="M148.168,97.773H271.283v111.2H148.168Zm0,0" transform="translate(-79.293 -52.324)"/><path class="c" d="M280.59,97.77h61.559v111.2H280.59Zm0,0" transform="translate(-150.159 -52.322)"/><g transform="translate(-93.575 -23.702)"><path class="d" d="M224.336,178.748A38.665,38.665,0,1,1,263,140.084a38.665,38.665,0,0,1-38.665,38.665" transform="translate(0 -15.793)"/><path class="e" d="M253.532,138.261a.95.95,0,1,1,.946,1.647,8.45,8.45,0,1,1,0-14.627.95.95,0,1,1-.946,1.647,6.538,6.538,0,1,0,0,11.333" transform="translate(-36.718 -30.658)"/><path class="e" d="M277.676,145.264a.954.954,0,1,1,1.349-1.349,9.509,9.509,0,0,0,3.067,2.058,9.454,9.454,0,0,0,13.038-8.725v-9.693h-5.884a.954.954,0,0,1,0-1.908h6.838a.953.953,0,0,1,.953.954v10.647a11.334,11.334,0,0,1-19.362,8.015" transform="translate(-59.993 -31.64)"/><path class="f" d="M288.741,77.747a.952.952,0,1,1,1.647.954,11.475,11.475,0,0,0,0,11.463,13.358,13.358,0,0,1,0,13.37.952.952,0,1,1-1.647-.954,11.472,11.472,0,0,0,0-11.463,13.361,13.361,0,0,1,0-13.37" transform="translate(-66.24)"/><path class="e" d="M252.6,244.314a3.621,3.621,0,0,1-2.638-1.1,3.843,3.843,0,0,1-.778-1.187,3.9,3.9,0,0,1-.3-1.451v-6.126a.387.387,0,0,1,.153-.3.542.542,0,0,1,.361-.128.533.533,0,0,1,.353.12.405.405,0,0,1,.144.329v6.223a2.457,2.457,0,0,0,.217,1.034,2.7,2.7,0,0,0,.593.834,2.742,2.742,0,0,0,.866.561,2.663,2.663,0,0,0,1.018.2,2.765,2.765,0,0,0,1.973-.8,2.676,2.676,0,0,0,.577-.866,2.713,2.713,0,0,0,.208-1.058v-6.142a.4.4,0,0,1,.145-.3.51.51,0,0,1,.352-.128.4.4,0,0,1,.353.136.5.5,0,0,1,.128.329v6.254a3.3,3.3,0,0,1-.3,1.419,3.666,3.666,0,0,1-.818,1.131,3.8,3.8,0,0,1-1.187.754,3.72,3.72,0,0,1-1.411.273" transform="translate(-41.341 -102.52)"/><path class="e" d="M281.416,237.759a2.623,2.623,0,0,0-.216-1.059,2.816,2.816,0,0,0-1.467-1.467,2.7,2.7,0,0,0-2.117,0,2.712,2.712,0,0,0-.866.594,2.878,2.878,0,0,0-.585.874,2.624,2.624,0,0,0-.217,1.059v6.062a.5.5,0,1,1-.994,0v-6.062a3.719,3.719,0,0,1,1.082-2.638,3.811,3.811,0,0,1,1.187-.8,3.7,3.7,0,0,1,2.9,0,3.77,3.77,0,0,1,1.988,1.988,3.6,3.6,0,0,1,.3,1.452v6.062a.5.5,0,1,1-.995,0Z" transform="translate(-58.395 -102.523)"/><path class="e" d="M308.59,239.186a4.107,4.107,0,0,0-.321-1.612,4.152,4.152,0,0,0-2.2-2.229,3.966,3.966,0,0,0-1.6-.329h-2.261v8.307h2.261a3.965,3.965,0,0,0,1.6-.329,4.237,4.237,0,0,0,1.315-.89,4.112,4.112,0,0,0,.882-1.315,4.048,4.048,0,0,0,.321-1.6m-6.88,5.132a.493.493,0,0,1-.5-.5v-9.3a.493.493,0,0,1,.5-.5h2.758a4.89,4.89,0,0,1,1.988.409,5.209,5.209,0,0,1,2.726,2.759,5.171,5.171,0,0,1,0,3.993,5.129,5.129,0,0,1-2.726,2.734,4.966,4.966,0,0,1-1.988.4Z" transform="translate(-75.571 -102.523)"/><path class="e" d="M329.744,234.565a.5.5,0,1,1,.994,0v9.285a.5.5,0,1,1-.994,0Z" transform="translate(-94.232 -102.553)"/><path class="f" d="M350.952,228.719a.486.486,0,0,1-.9-.37l.337-.819a.486.486,0,1,1,.9.37Z" transform="translate(-107.49 -98.079)"/><path class="e" d="M303.816,201.205a1.038,1.038,0,0,0-.209-.557,1.877,1.877,0,0,0-.521-.477,2.813,2.813,0,0,0-.762-.331,3.37,3.37,0,0,0-.914-.121,3.521,3.521,0,0,0-.938.121,2.686,2.686,0,0,0-.762.331,1.762,1.762,0,0,0-.513.5,1.093,1.093,0,0,0-.192.614.862.862,0,0,0,.24.589c1.293,1.433,4.248.565,5.436,2.923a2.562,2.562,0,0,1,.273,1.171,2.741,2.741,0,0,1-.281,1.219,3.036,3.036,0,0,1-.778.993,3.972,3.972,0,0,1-2.566.921,4.049,4.049,0,0,1-1.411-.243,3.719,3.719,0,0,1-1.155-.67,3.155,3.155,0,0,1-.778-.993,2.686,2.686,0,0,1-.281-1.212.453.453,0,0,1,.136-.331.463.463,0,0,1,.657,0,.453.453,0,0,1,.137.331,1.791,1.791,0,0,0,.208.848,2.177,2.177,0,0,0,.57.686,2.79,2.79,0,0,0,.85.46,3.18,3.18,0,0,0,1.05.17,3.251,3.251,0,0,0,1.058-.17,2.99,2.99,0,0,0,.874-.46,2.1,2.1,0,0,0,.585-.686,1.55,1.55,0,0,0,.176-.848,1.719,1.719,0,0,0-.257-.783c-1.249-2.021-4.141-.867-5.46-2.956a1.791,1.791,0,0,1-.281-.977,1.962,1.962,0,0,1,.264-.993,2.669,2.669,0,0,1,.73-.807,3.73,3.73,0,0,1,1.083-.549,4.439,4.439,0,0,1,2.646,0,3.737,3.737,0,0,1,1.083.549,2.664,2.664,0,0,1,.73.807,1.959,1.959,0,0,1,.265.993.484.484,0,0,1-.145.355.478.478,0,0,1-.353.145.441.441,0,0,1-.345-.153.661.661,0,0,1-.152-.412" transform="translate(-73.277 -79.432)"/><path class="e" d="M273.35,200.73l-3.384,8.131a.533.533,0,0,1-.265.265.442.442,0,0,1-.377.008.49.49,0,0,1-.273-.265.464.464,0,0,1,0-.377l3.833-9.253a.672.672,0,0,1,.176-.248.411.411,0,0,1,.289-.12.427.427,0,0,1,.288.112.734.734,0,0,1,.192.256l3.8,9.253a.464.464,0,0,1,0,.377.49.49,0,0,1-.273.265.443.443,0,0,1-.377-.008.533.533,0,0,1-.265-.265Z" transform="translate(-54.51 -79.531)"/><path class="e" d="M241.081,204.018a4.051,4.051,0,0,0,.321,1.6,4.188,4.188,0,0,0,.874,1.315,4.133,4.133,0,0,0,1.307.89,3.962,3.962,0,0,0,1.6.329,4.089,4.089,0,0,0,1.676-.345,4.01,4.01,0,0,0,1.339-.954.621.621,0,0,1,.329-.193.429.429,0,0,1,.361.064.482.482,0,0,1,.176.393.59.59,0,0,1-.145.409,4.951,4.951,0,0,1-1.668,1.195,5.062,5.062,0,0,1-2.069.425,4.966,4.966,0,0,1-1.988-.4,5.078,5.078,0,0,1-1.62-1.1,5.219,5.219,0,0,1-1.09-1.636,5.172,5.172,0,0,1,0-3.993,5.154,5.154,0,0,1,2.71-2.742,5.053,5.053,0,0,1,4,.008,5.272,5.272,0,0,1,1.644,1.139.807.807,0,0,1,.192.321.414.414,0,0,1-.048.369.463.463,0,0,1-.377.209.527.527,0,0,1-.425-.161,7.045,7.045,0,0,0-1.347-.9,3.526,3.526,0,0,0-1.652-.4,3.968,3.968,0,0,0-1.6.329,4.077,4.077,0,0,0-1.307.9,4.291,4.291,0,0,0-.874,1.323,4.053,4.053,0,0,0-.321,1.6" transform="translate(-35.591 -79.531)"/><path class="e" d="M326.807,200.73l-3.384,8.131a.533.533,0,0,1-.265.265.442.442,0,0,1-.377.008.491.491,0,0,1-.273-.265.463.463,0,0,1,0-.377l3.833-9.253a.669.669,0,0,1,.176-.248.412.412,0,0,1,.289-.12.429.429,0,0,1,.289.112.739.739,0,0,1,.192.256l3.8,9.253a.461.461,0,0,1,0,.377.489.489,0,0,1-.273.265.442.442,0,0,1-.377-.008.531.531,0,0,1-.265-.265Z" transform="translate(-89.473 -79.531)"/><path class="e" d="M341.254,235.851l-3.384,8.13a.532.532,0,0,1-.265.265.442.442,0,0,1-.377.008.49.49,0,0,1-.273-.265.461.461,0,0,1,0-.377l3.833-9.253a.67.67,0,0,1,.177-.248.411.411,0,0,1,.288-.12.428.428,0,0,1,.289.112.744.744,0,0,1,.192.257l3.8,9.253a.464.464,0,0,1,0,.377.492.492,0,0,1-.273.265.442.442,0,0,1-.377-.008.532.532,0,0,1-.265-.265Z" transform="translate(-98.922 -102.503)"/><path class="e" d="M226.4,243.138a.485.485,0,1,1,.688-.684,2.789,2.789,0,0,0,.9.6,2.742,2.742,0,0,0,1.054.209v0a2.779,2.779,0,0,0,2.766-2.769v-5.574h-.68a.485.485,0,0,1,0-.969h1.125l.043,0a.487.487,0,0,1,.486.487V240.5a3.746,3.746,0,0,1-3.739,3.738v0a3.713,3.713,0,0,1-1.427-.285,3.759,3.759,0,0,1-1.215-.815" transform="translate(-26.545 -102.478)"/><path class="f" d="M258.771,270.923v0Zm.028.062a.377.377,0,0,0-.033-.067C258.726,270.867,258.762,270.922,258.8,270.985Zm-4.5,5.333c.521-.425,1.038-.861,1.524-1.295a18.159,18.159,0,0,0,2.1-2.177,3.412,3.412,0,0,0,.9-1.737,3.313,3.313,0,0,0-1.237.567c-.1.07-.224.157-.362.263a8.265,8.265,0,0,0-1.907,2.083A8.17,8.17,0,0,0,254.3,276.318Zm-3.938-9.482c.118-.226.5-.238.861-.026s.553.568.436.794a56.74,56.74,0,0,0-2.429,5.95,37.607,37.607,0,0,0-1.444,5.12c-.253,1.373-.244,1.906-.076,1.911a7.018,7.018,0,0,0,3.216-1.666c.52-.386,1.131-.843,1.784-1.345a6.492,6.492,0,0,1,.173-1.59,8.694,8.694,0,0,1,1.169-2.773,8.851,8.851,0,0,1,2.038-2.235c.121-.093.254-.188.4-.284a4.041,4.041,0,0,1,1.607-.7,1.778,1.778,0,0,1,1.753.674h0c.023.03.043.056.057.079.562.835.056,1.94-.734,2.952a18.718,18.718,0,0,1-2.172,2.256c-.811.723-1.708,1.455-2.573,2.133l-.324.252a1.912,1.912,0,0,0,.258.832.356.356,0,0,0,.215.163,1.105,1.105,0,0,0,.317.015,5.629,5.629,0,0,0,2.813-1.581,10.466,10.466,0,0,0,2.4-3.264c.111-.23.493-.249.853-.041s.564.564.453.794a11.026,11.026,0,0,1-2.527,3.437,6.4,6.4,0,0,1-3.316,1.777,2.633,2.633,0,0,1-.768-.056,2.5,2.5,0,0,1-1.584-1.093q-.067-.1-.125-.208c-.367.277-.714.536-1.029.769-1.464,1.087-2.834,1.85-3.807,1.823-1.506-.042-2.289-1.062-1.814-3.636a38.179,38.179,0,0,1,1.468-5.212A57.282,57.282,0,0,1,250.36,266.836Zm24.58,2.149a1.45,1.45,0,0,0-.516,0,4.407,4.407,0,0,0-2.514,1.732,8.675,8.675,0,0,0-1.7,3.6,6.037,6.037,0,0,0-.1,2.124,2.668,2.668,0,0,0,.452,1.208.8.8,0,0,0,.473.318,1.45,1.45,0,0,0,.516,0,4.406,4.406,0,0,0,2.514-1.732,8.678,8.678,0,0,0,1.7-3.6,6.03,6.03,0,0,0,.1-2.124,2.668,2.668,0,0,0-.452-1.208A.8.8,0,0,0,274.94,268.986Zm-1.281-1.112a2.869,2.869,0,0,1,1.029.023,3,3,0,0,1,1.8,1.158,3.957,3.957,0,0,1,.728,1.808,6.768,6.768,0,0,1-.1,2.392,9.267,9.267,0,0,1-1.812,3.848,5.09,5.09,0,0,1-2.987,1.978,2.876,2.876,0,0,1-1.03-.023,3,3,0,0,1-1.8-1.158,3.956,3.956,0,0,1-.728-1.808,6.777,6.777,0,0,1,.1-2.392,9.269,9.269,0,0,1,1.812-3.848A5.091,5.091,0,0,1,273.659,267.874ZM263.123,278.3l.029-.007,0,0a6.57,6.57,0,0,0,1.337-1.549,40.031,40.031,0,0,0,4.343-8.9c.067-.254.422-.314.794-.135s.618.53.551.784a40.868,40.868,0,0,1-4.426,9.073,7.1,7.1,0,0,1-1.481,1.7,1.349,1.349,0,0,1-2.144-.436,4.851,4.851,0,0,1-.5-2.6c0-1.042.045-2.073.127-3.152s.2-2.2.331-3.419c.031-.27.36-.363.737-.209s.656.5.625.767c-.134,1.223-.249,2.338-.329,3.394s-.127,2.071-.125,3.093A7.318,7.318,0,0,0,263.123,278.3Zm-18.165,6.165c-.325.071-.563-.108-.531-.4a.843.843,0,0,1,.645-.656,153.291,153.291,0,0,1,16.451-2.652c5.128-.54,9.961-.785,14.634-.869a.374.374,0,0,1,.378.534.866.866,0,0,1-.747.553c-4.632.084-9.428.326-14.527.863A151.963,151.963,0,0,0,244.958,284.47Z" transform="translate(-38.428 -123.869)"/></g><path class="g" d="M209.99,309.716,161.632,333.7c-8.9,4.416-19.235,9.212-29.169,6.386-12.462-3.552-13.722-2.836-20.4.479L62.9,364.746a119.521,119.521,0,0,1-25.254-27.44q-2.342-3.514-4.431-7.2l69.723-34.353a3.69,3.69,0,0,1,2.709-.251l45.024,13.677a3.724,3.724,0,0,0,2.706-.252L198.5,286.545c6.7-3.328,14.461-1.552,18.054,3.891a11.321,11.321,0,0,1,.71,1.237C220.435,298.073,217.181,306.146,209.99,309.716Zm0,0" transform="translate(-17.777 -152.446)"/><path class="h" d="M147.9,307.244c-1.859,5.108-8.707,7.637-13.9,6.034l-11.045-3.417-22.906-7.1L32.17,336.2q-2.342-3.514-4.431-7.2-2.579-4.54-4.759-9.32c31.437-15.5,72.111-35.515,72.962-35.938,4.155-2.063,8.358-.26,11.815.8,2.213.688,33.013,10.158,33.013,10.158a11.229,11.229,0,0,1,5.936,4.523A8.95,8.95,0,0,1,147.9,307.244Zm0,0" transform="translate(-12.298 -151.34)"/><path class="i" d="M99.45,352.438,59.074,373.129h-.005A119.558,119.558,0,0,1,27.906,341.3a118.12,118.12,0,0,1-12.894-25.632l48.8-23.344Zm0,0" transform="translate(-8.034 -156.437)"/><path class="j" d="M114.289,380.32,73.913,401.011A119.559,119.559,0,0,1,42.75,369.178l50.259-24.757Zm0,0" transform="translate(-22.878 -184.32)"/></svg>